<svg version="1.2" xmlns="http://www.w3.org/2000/svg" viewBox="0 0 1522 367" width="128" height="32">
	<title>playcanada-svg</title>
	<style>
		.s0 { fill: #000000 } 
	</style>
	<g id="Layer">
		<path id="Layer" fill-rule="evenodd" class="s0" d="m789.1 131.5h26.9l-62.3 164.7h-24.4l18.3-50-42.7-114.7h25.7l26.8 78.1 2.4 8.6 2.5-8.6zm-244-51.2h24.4v167.1h-24.4zm133 57.4c7.3 7.3 10.9 18.3 10.9 31.7v76.8h-21.9l-1.2-14.6c-7.4 12.2-18.3 18.3-34.2 18.3-11 0-19.5-2.4-25.6-8.5-6.1-6.1-9.8-14.7-9.8-24.4 0-18.3 11-29.3 34.2-34.2l32.9-6.1v-4.9c0-13.4-7.3-20.7-19.5-20.7-6.1 0-11 1.2-14.6 4.9-3.7 3.6-6.1 7.3-6.1 13.4h-23.2c0-12.2 3.6-22 12.2-29.3 8.5-7.3 18.3-11 31.7-11 13.4 0 24.4 3.7 34.2 8.6zm-13.5 61v-4.9l-28 6.1q-14.7 3.6-14.7 14.6c0 3.7 1.3 7.3 3.7 9.8 3.7 2.4 7.3 3.6 12.2 3.6 8.5 0 15.9-3.6 20.7-10.9 2.5-4.9 4.9-11 4.9-18.3zm-158.6-97.6q14.7 14.6 14.7 36.6 0 21.9-14.7 36.6c-9.7 8.5-21.9 13.4-39 13.4h-23.2v59.8h-25.6v-161.1h48.8c17.1 0 30.5 4.9 39 14.7zm-11 36.6c0-8.6-2.4-14.7-7.3-19.6-4.9-4.8-12.2-7.3-20.7-7.3h-23.2v52.5h23.2c8.5 0 15.8-2.5 20.7-7.3 4.9-4.9 8.6-11 7.3-18.3zm877.2 2.4c6.1 7.3 9.8 18.3 9.8 31.7v75.7h-24.4v-70.8c0-8.5-1.2-14.6-4.9-18.3-3.7-3.7-8.5-6.1-14.6-6.1-7.4 0-12.2 2.4-17.1 8.5-3.7 6.1-6.1 14.7-6.1 24.4v62.3h-24.4v-115.9h20.7l1.2 15.8c2.5-6.1 6.1-9.7 12.2-13.4 6.1-3.7 12.2-4.9 19.6-4.9 12.2 0 20.7 3.7 28 11zm148.9-59.8v167.2h-22l-1.2-15.9c-8.6 12.2-22 18.3-39.1 18.3-15.8 0-29.2-6.1-39-17.1q-14.6-18.3-14.6-43.9c0-17.1 4.8-31.7 14.6-42.7 9.8-11 23.2-17.1 39-17.1 15.9 0 28.1 6.1 36.6 17.1v-65.9zm-35.3 80.5c-7.4-6.1-14.7-9.7-23.2-9.7-9.8 0-18.3 3.6-24.4 11-6.1 7.3-9.8 15.8-9.8 26.8 0 11 3.7 19.5 9.8 26.8 6.1 7.4 14.6 11 24.4 11 8.5 0 17.1-3.6 23.2-9.7 6.1-6.1 9.7-15.9 9.7-26.9 0-12.2-2.4-21.9-9.7-29.3zm-255-29.2h24.4v115.9h-20.8l-1.2-15.9c-6.1 12.2-17.1 18.3-31.7 18.3-12.2 0-22-3.7-28.1-11-6.1-7.3-9.7-18.3-9.7-31.7v-75.6h24.4v70.7c0 15.9 6.1 24.4 19.5 24.4 7.3 0 13.4-2.4 17.1-8.5 3.6-6.1 6.1-13.4 6.1-23.2zm-242.8 4.9c6.1-3.7 13.4-6.1 22-6.1v24.4c-9.8 0-17.1 2.4-23.2 7.3-6.1 4.9-9.8 13.4-9.8 24.4v61h-24.4v-115.9h20.8l2.4 19.5c2.4-6.1 6.1-11 12.2-14.6zm135.4 9.7c11 12.2 17.1 25.7 17.1 44 0 18.3-6.1 32.9-17.1 43.9-11 11-25.6 17.1-42.7 17.1-17.1 0-31.7-6.1-42.7-17.1-11-11-17.1-25.6-17.1-43.9 0-18.3 6.1-33 17.1-44 11-10.9 25.6-17 42.7-17 17.1 0 31.7 4.8 42.7 17zm-7.3 44c0-11-3.7-19.6-9.8-26.9-6.1-7.3-14.6-11-24.4-11-9.7 0-18.3 3.7-24.4 11-6.1 6.1-9.7 15.9-9.7 26.9 0 10.9 3.6 19.5 9.7 26.8 6.1 7.3 14.7 11 24.4 11 9.8 0 18.3-3.7 24.4-11 6.1-7.3 9.8-17.1 9.8-26.8zm-224.5-56.2h42.7v20.8h-18.3q3.7 9.1 3.7 18.3c0 12.2-3.7 21.9-12.2 29.3q-12.8 10.9-33 10.9c-7.3 0-14.6-1.2-21.9-4.8-2.5 2.4-3.7 6.1-3.7 9.7q0 3.7 3.7 7.3c2.4 1.3 6.1 2.5 9.7 2.5h29.3c12.2 0 22 2.4 28.1 8.5 6.1 6.1 9.7 14.7 9.7 24.4 0 12.2-4.8 22-13.4 29.3-9.7 7.3-20.7 11-36.6 11-15.8 0-29.3-3.7-37.8-9.8-8.5-6.1-13.4-15.8-13.4-26.8 0-8.6 3.6-15.9 12.2-20.8-9.8-6.1-14.7-13.4-14.7-24.4 0-9.7 4.9-18.3 12.2-24.4-4.8-7.3-7.3-15.8-7.3-24.4 0-12.2 3.7-21.9 12.2-29.2 8.6-8.6 19.5-12.2 33-12.2 4.8 0 10.9 0 15.8 4.8zm-40.2 125.7c0 6.1 2.4 11 7.3 13.4 4.9 3.7 12.2 4.9 20.7 4.9q25.6 0 25.6-18.3c0-8.5-6.1-13.4-18.3-13.4h-19.5c-4.9 1.2-8.5 2.4-11 4.9-3.6 2.4-4.8 6.1-4.8 8.5zm45.1-90.3c0-6.1-2.4-12.2-6.1-15.8-3.7-3.7-9.8-6.1-15.9-6.1-6.1 0-12.2 2.4-15.8 6.1-3.7 3.6-6.1 9.7-6.1 15.8 0 6.1 2.4 12.2 6.1 15.9 4.9 3.6 9.7 6.1 15.8 6.1 7.4 0 12.2-2.5 15.9-6.1 4.9-3.7 6.1-8.6 6.1-15.9z"/>
		<path id="Layer" class="s0" d="m282.8 99.8c0 113.5 11 201.3-23.2 236.7-29.2 31.7-71.9 29.3-71.9 29.3 0 0-100.1 9.7-124.5-26.9-24.4-36.6-20.7-68.3-20.7-68.3 0 0 1.2-128.1 9.7-169.6 8.6-41.4 29.3-46.3 29.3-46.3 0 0 20.8-12.2 67.1-8.6 46.4 2.5 81.8 9.8 85.4 59.8 3.7 50 4.9 102.5-29.3 113.5-34.1 11-79.3 2.4-79.3 2.4 0 0-31.7-3.6-34.1-43.9-2.5-43.9-4.9-78.1 11-76.9 13.4 0 7.3 52.5 7.3 52.5 0 0-3.7 34.2 12.2 43.9 15.8 9.8 39 8.6 72 1.2 34.1-7.3 23.1-91.5 23.1-91.5 0 0-4.8-42.7-62.2-42.7-57.3 1.3-75.6 13.5-79.3 34.2-3.6 20.7-9.7 87.8-8.5 169.6 0 0 1.2 46.3 28 58.5 28.1 12.2 87.9 12.2 98.9 11 43.9-4.9 59.7-23.2 65.8-61 1.3-13.4 2.5-32.9 2.5-56.1 0-58.6 4.9-137.9-17.1-167.1-22-29.3-73.2-29.3-73.2-29.3 0 0-72-3.7-95.2 6.1-23.1 11-42.7 35.4-48.8 87.8-3.6 35.4-3.6 96.4-3.6 133 0 15.9 1.2 31.7 2.4 47.6 2.5 23.2 3.7 58.5-13.4 54.9 0 0-12.2 1.2-12.2-58.6 0-63.4-1.2-140.3 2.4-167.1 0 0 3.7-90.3 51.3-112.3 47.6-20.7 123.2-13.4 123.2-13.4 0 0 104.9-2.4 104.9 97.6z"/>
	</g>
</svg>